<svg width="25" height="25" viewBox="0 0 25 25" fill="none" xmlns="http://www.w3.org/2000/svg">
<path d="M21.0918 9.8803C21.1446 9.76022 21.1732 9.63091 21.176 9.49975C21.1789 9.36859 21.1558 9.23817 21.1081 9.11594C21.0605 8.99371 20.9892 8.88208 20.8984 8.78742C20.8075 8.69277 20.6989 8.61695 20.5788 8.5643L7.50378 2.8083C6.50878 2.3703 5.28378 2.8593 4.85878 3.8503L2.64878 9.0043C2.44087 9.49183 2.43487 10.0419 2.6321 10.5339C2.82933 11.0258 3.21367 11.4194 3.70078 11.6283L9.73878 14.2163L8.49878 17.3163H4.17578V14.3163H2.17578V22.3163H4.17578V19.3163H8.49878C9.32178 19.3163 10.0508 18.8223 10.3548 18.0583L11.5768 15.0043L16.7818 17.2343C17.0242 17.3383 17.2979 17.3424 17.5432 17.2455C17.7886 17.1487 17.9858 16.9588 18.0918 16.7173L18.4038 16.0073L20.1048 16.6873L22.1048 11.6873L20.5688 11.0743L21.0918 9.8803ZM16.6578 15.0063L4.48878 9.7913L6.69678 4.6393L18.8588 9.9933L16.6578 15.0063Z" fill="white"/>
</svg>
