<svg width="50" height="50" viewBox="0 0 50 50" fill="none" xmlns="http://www.w3.org/2000/svg">
<path d="M4.16663 25.0001L14.5833 33.3334V27.0834H33.3333V22.9167H14.5833V16.6667L4.16663 25.0001Z" fill="#B0B0B0"/>
<path d="M27.0854 6.24787C24.6219 6.24104 22.1815 6.7231 19.9057 7.66613C17.6298 8.60916 15.5637 9.99441 13.827 11.7416L16.7729 14.6875C19.527 11.9333 23.1895 10.4145 27.0854 10.4145C30.9812 10.4145 34.6437 11.9333 37.3979 14.6875C40.152 17.4416 41.6708 21.1041 41.6708 25C41.6708 28.8958 40.152 32.5583 37.3979 35.3125C34.6437 38.0666 30.9812 39.5854 27.0854 39.5854C23.1895 39.5854 19.527 38.0666 16.7729 35.3125L13.827 38.2583C17.3666 41.8 22.0749 43.752 27.0854 43.752C32.0958 43.752 36.8041 41.8 40.3437 38.2583C43.8854 34.7187 45.8374 30.0104 45.8374 25C45.8374 19.9895 43.8854 15.2812 40.3437 11.7416C38.607 9.99441 36.5409 8.60916 34.2651 7.66613C31.9892 6.7231 29.5488 6.24104 27.0854 6.24787Z" fill="#B0B0B0"/>
</svg>
