<svg width="50" height="50" viewBox="0 0 50 50" fill="none" xmlns="http://www.w3.org/2000/svg">
<path d="M38.8625 36.656L44.9656 42.756C45.2503 43.0507 45.4077 43.4454 45.4042 43.8551C45.4006 44.2648 45.2363 44.6567 44.9466 44.9464C44.6569 45.2361 44.265 45.4004 43.8553 45.4039C43.4456 45.4075 43.0509 45.25 42.7563 44.9654L36.6531 38.8623C32.6649 42.2793 27.5082 44.0187 22.2651 43.7157C17.0219 43.4126 12.1 41.0905 8.53204 37.2367C4.96408 33.3829 3.02745 28.297 3.12852 23.0461C3.2296 17.7952 5.36052 12.7875 9.07415 9.07391C12.7878 5.36028 17.7954 3.22935 23.0463 3.12828C28.2972 3.0272 33.3832 4.96383 37.237 8.5318C41.0908 12.0998 43.4128 17.0217 43.7159 22.2648C44.019 27.5079 42.2795 32.6646 38.8625 36.6529V36.656ZM23.4375 40.6248C27.9959 40.6248 32.3676 38.8139 35.5909 35.5907C38.8142 32.3674 40.625 27.9957 40.625 23.4373C40.625 18.8789 38.8142 14.5071 35.5909 11.2839C32.3676 8.06059 27.9959 6.24976 23.4375 6.24976C18.8791 6.24976 14.5074 8.06059 11.2841 11.2839C8.06083 14.5071 6.25001 18.8789 6.25001 23.4373C6.25001 27.9957 8.06083 32.3674 11.2841 35.5907C14.5074 38.8139 18.8791 40.6248 23.4375 40.6248Z" fill="#B0B0B0" fill-opacity="0.64"/>
</svg>
