<svg width="25" height="24" viewBox="0 0 25 24" fill="none" xmlns="http://www.w3.org/2000/svg">
<path d="M12.415 2.5C17.6615 2.5 21.915 6.7535 21.915 12C21.915 17.2465 17.6615 21.5 12.415 21.5C7.16854 21.5 2.91504 17.2465 2.91504 12C2.91504 6.7535 7.16854 2.5 12.415 2.5ZM12.415 3.75C7.85854 3.75 4.16504 7.4435 4.16504 12C4.16504 16.5565 7.85854 20.25 12.415 20.25C16.9715 20.25 20.665 16.5565 20.665 12C20.665 7.4435 16.9715 3.75 12.415 3.75ZM11.79 6C12.1135 6 12.38 6.246 12.412 6.561L12.415 6.625V12H15.79C15.9508 11.9993 16.1056 12.0604 16.2224 12.1709C16.3391 12.2813 16.4089 12.4325 16.4171 12.593C16.4254 12.7535 16.3715 12.911 16.2666 13.0328C16.1617 13.1546 16.014 13.2313 15.854 13.247L15.79 13.25H11.79C11.6353 13.2501 11.4861 13.1927 11.3712 13.0891C11.2563 12.9855 11.1839 12.8429 11.168 12.689L11.165 12.625V6.625C11.165 6.28 11.445 6 11.79 6Z" fill="white"/>
</svg>
