<svg width="90" height="50" viewBox="0 0 90 50" fill="none" xmlns="http://www.w3.org/2000/svg">
<g clip-path="url(#clip0_0_21)">
<path d="M57.3333 11H45.9333C45.5974 11 45.2752 11.1159 45.0377 11.3222C44.8001 11.5285 44.6667 11.8083 44.6667 12.1V23.8333M44.6667 33H57.3333H44.6667ZM44.6667 33V23.8333V33ZM44.6667 33H33.2667C32.9307 33 32.6085 32.8841 32.371 32.6778C32.1335 32.4715 32 32.1917 32 31.9V24.9333C32 24.6416 32.1335 24.3618 32.371 24.1555C32.6085 23.9492 32.9307 23.8333 33.2667 23.8333H44.6667V33ZM57.3333 33V11V33ZM57.3333 33H68.7333C69.0693 33 69.3915 32.8841 69.629 32.6778C69.8665 32.4715 70 32.1917 70 31.9V1.1C70 0.808262 69.8665 0.528473 69.629 0.322183C69.3915 0.115893 69.0693 0 68.7333 0H58.6C58.2641 0 57.9419 0.115893 57.7043 0.322183C57.4668 0.528473 57.3333 0.808262 57.3333 1.1V11V33Z" stroke="#B0B0B0" stroke-opacity="0.64" stroke-width="1.5"/>
</g>
<defs>
<clipPath id="clip0_0_21">
<rect width="90" height="50" fill="white"/>
</clipPath>
</defs>
</svg>
