<svg width="25" height="25" viewBox="0 0 25 25" fill="none" xmlns="http://www.w3.org/2000/svg">
<path d="M12.1758 8.31641C9.96578 8.31641 8.17578 10.1064 8.17578 12.3164C8.17578 14.5264 9.96578 16.3164 12.1758 16.3164C14.3858 16.3164 16.1758 14.5264 16.1758 12.3164C16.1758 10.1064 14.3858 8.31641 12.1758 8.31641ZM21.1158 11.3164C20.8893 9.28853 19.9799 7.39794 18.5371 5.9551C17.0942 4.51226 15.2037 3.60292 13.1758 3.37641V1.31641H11.1758V3.37641C9.1479 3.60292 7.25732 4.51226 5.81448 5.9551C4.37163 7.39794 3.46229 9.28853 3.23578 11.3164H1.17578V13.3164H3.23578C3.46229 15.3443 4.37163 17.2349 5.81448 18.6777C7.25732 20.1206 9.1479 21.0299 11.1758 21.2564V23.3164H13.1758V21.2564C15.2037 21.0299 17.0942 20.1206 18.5371 18.6777C19.9799 17.2349 20.8893 15.3443 21.1158 13.3164H23.1758V11.3164H21.1158ZM12.1758 19.3164C8.30578 19.3164 5.17578 16.1864 5.17578 12.3164C5.17578 8.44641 8.30578 5.31641 12.1758 5.31641C16.0458 5.31641 19.1758 8.44641 19.1758 12.3164C19.1758 16.1864 16.0458 19.3164 12.1758 19.3164Z" fill="white"/>
</svg>
