<svg width="25" height="24" viewBox="0 0 25 24" fill="none" xmlns="http://www.w3.org/2000/svg">
<path d="M19.415 4H17.415V3C17.415 2.73478 17.3097 2.48043 17.1221 2.29289C16.9346 2.10536 16.6803 2 16.415 2C16.1498 2 15.8955 2.10536 15.7079 2.29289C15.5204 2.48043 15.415 2.73478 15.415 3V4H9.41504V3C9.41504 2.73478 9.30968 2.48043 9.12215 2.29289C8.93461 2.10536 8.68026 2 8.41504 2C8.14982 2 7.89547 2.10536 7.70793 2.29289C7.5204 2.48043 7.41504 2.73478 7.41504 3V4H5.41504C4.61939 4 3.85633 4.31607 3.29372 4.87868C2.73111 5.44129 2.41504 6.20435 2.41504 7V19C2.41504 19.7956 2.73111 20.5587 3.29372 21.1213C3.85633 21.6839 4.61939 22 5.41504 22H19.415C20.2107 22 20.9738 21.6839 21.5364 21.1213C22.099 20.5587 22.415 19.7956 22.415 19V7C22.415 6.20435 22.099 5.44129 21.5364 4.87868C20.9738 4.31607 20.2107 4 19.415 4ZM20.415 19C20.415 19.2652 20.3097 19.5196 20.1221 19.7071C19.9346 19.8946 19.6803 20 19.415 20H5.41504C5.14982 20 4.89547 19.8946 4.70793 19.7071C4.5204 19.5196 4.41504 19.2652 4.41504 19V12H20.415V19ZM20.415 10H4.41504V7C4.41504 6.73478 4.5204 6.48043 4.70793 6.29289C4.89547 6.10536 5.14982 6 5.41504 6H7.41504V7C7.41504 7.26522 7.5204 7.51957 7.70793 7.70711C7.89547 7.89464 8.14982 8 8.41504 8C8.68026 8 8.93461 7.89464 9.12215 7.70711C9.30968 7.51957 9.41504 7.26522 9.41504 7V6H15.415V7C15.415 7.26522 15.5204 7.51957 15.7079 7.70711C15.8955 7.89464 16.1498 8 16.415 8C16.6803 8 16.9346 7.89464 17.1221 7.70711C17.3097 7.51957 17.415 7.26522 17.415 7V6H19.415C19.6803 6 19.9346 6.10536 20.1221 6.29289C20.3097 6.48043 20.415 6.73478 20.415 7V10Z" fill="white"/>
</svg>
