<svg width="30" height="25" viewBox="0 0 30 25" fill="none" xmlns="http://www.w3.org/2000/svg">
<path d="M27.2222 3.84615H22.5L21.375 0.728022C21.2973 0.514657 21.1548 0.330226 20.9672 0.199923C20.7795 0.0696202 20.5557 -0.000200075 20.3264 4.30641e-07H9.67361C9.20486 4.30641e-07 8.78472 0.291896 8.62847 0.728022L7.5 3.84615H2.77778C1.24306 3.84615 0 5.07555 0 6.59341V22.2527C0 23.7706 1.24306 25 2.77778 25H27.2222C28.7569 25 30 23.7706 30 22.2527V6.59341C30 5.07555 28.7569 3.84615 27.2222 3.84615ZM27.5 22.2527C27.5 22.4038 27.375 22.5275 27.2222 22.5275H2.77778C2.625 22.5275 2.5 22.4038 2.5 22.2527V6.59341C2.5 6.44231 2.625 6.31868 2.77778 6.31868H9.26042L9.85417 4.6772L10.6493 2.47253H19.3472L20.1424 4.6772L20.7361 6.31868H27.2222C27.375 6.31868 27.5 6.44231 27.5 6.59341V22.2527ZM15 8.51648C11.9306 8.51648 9.44444 10.9753 9.44444 14.011C9.44444 17.0467 11.9306 19.5055 15 19.5055C18.0694 19.5055 20.5556 17.0467 20.5556 14.011C20.5556 10.9753 18.0694 8.51648 15 8.51648ZM15 17.3077C13.1597 17.3077 11.6667 15.831 11.6667 14.011C11.6667 12.1909 13.1597 10.7143 15 10.7143C16.8403 10.7143 18.3333 12.1909 18.3333 14.011C18.3333 15.831 16.8403 17.3077 15 17.3077Z" fill="white"/>
</svg>
