<svg width="35" height="35" viewBox="0 0 35 35" fill="none" xmlns="http://www.w3.org/2000/svg">
<path d="M23.3333 17.5C23.3333 16.3463 22.9912 15.2185 22.3502 14.2592C21.7093 13.2999 20.7982 12.5522 19.7323 12.1107C18.6664 11.6692 17.4935 11.5537 16.362 11.7788C15.2304 12.0038 14.191 12.5594 13.3752 13.3752C12.5594 14.191 12.0038 15.2304 11.7788 16.362C11.5537 17.4935 11.6692 18.6664 12.1107 19.7323C12.5522 20.7982 13.2999 21.7093 14.2592 22.3502C15.2185 22.9912 16.3463 23.3333 17.5 23.3333C19.0466 23.3316 20.5293 22.7164 21.6228 21.6228C22.7164 20.5293 23.3316 19.0466 23.3333 17.5ZM14 17.5C14 16.8078 14.2053 16.1311 14.5899 15.5555C14.9744 14.9799 15.5211 14.5313 16.1606 14.2664C16.8001 14.0015 17.5039 13.9322 18.1828 14.0673C18.8617 14.2023 19.4854 14.5356 19.9749 15.0251C20.4644 15.5146 20.7977 16.1383 20.9327 16.8172C21.0678 17.4961 20.9985 18.1999 20.7336 18.8394C20.4687 19.4789 20.0201 20.0256 19.4445 20.4101C18.8689 20.7947 18.1922 21 17.5 21C16.5721 20.9989 15.6824 20.6298 15.0263 19.9737C14.3702 19.3176 14.0011 18.4279 14 17.5ZM10.5 27.8533L16.7203 35H18.2797L24.5 27.8533V25.6667H10.5V27.8533ZM21.2789 28L17.5 32.3418L13.7211 28H21.2789ZM16.7203 0L10.5 7.14671V9.33333H24.5V7.14671L18.2797 0H16.7203ZM13.7211 7L17.5 2.65825L21.2789 7H13.7211ZM0 16.7203V18.2797L7.14678 24.5H9.33333V10.5H7.14678L0 16.7203ZM7 21.279L2.65818 17.5L7 13.721V21.279ZM27.8532 10.5H25.6667V24.5H27.8532L35 18.2797V16.7203L27.8532 10.5ZM28 21.279V13.721L32.3418 17.5L28 21.279Z" fill="white"/>
</svg>
