<svg width="25" height="25" viewBox="0 0 25 25" fill="none" xmlns="http://www.w3.org/2000/svg">
<path fill-rule="evenodd" clip-rule="evenodd" d="M23.736 0C24.0712 0 24.3927 0.133176 24.6298 0.370231C24.8668 0.607285 25 0.9288 25 1.26405V12.5C25 12.8352 24.8668 13.1568 24.6298 13.3938C24.3927 13.6309 24.0712 13.764 23.736 13.764C23.4007 13.764 23.0792 13.6309 22.8421 13.3938C22.6051 13.1568 22.4719 12.8352 22.4719 12.5V4.31461L4.31461 22.4719H12.5C12.8352 22.4719 13.1568 22.6051 13.3938 22.8421C13.6309 23.0792 13.764 23.4007 13.764 23.736C13.764 24.0712 13.6309 24.3927 13.3938 24.6298C13.1568 24.8668 12.8352 25 12.5 25H1.26405C0.9288 25 0.607285 24.8668 0.370231 24.6298C0.133176 24.3927 0 24.0712 0 23.736V12.5C-4.94709e-09 12.334 0.0326958 12.1696 0.09622 12.0163C0.159744 11.8629 0.252853 11.7236 0.370231 11.6062C0.487608 11.4888 0.626955 11.3957 0.780316 11.3322C0.933677 11.2687 1.09805 11.236 1.26405 11.236C1.43004 11.236 1.59441 11.2687 1.74777 11.3322C1.90114 11.3957 2.04048 11.4888 2.15786 11.6062C2.27524 11.7236 2.36835 11.8629 2.43187 12.0163C2.49539 12.1696 2.52809 12.334 2.52809 12.5V20.6854L20.6854 2.52809H12.5C12.1648 2.52809 11.8432 2.39491 11.6062 2.15786C11.3691 1.92081 11.236 1.59929 11.236 1.26405C11.236 0.9288 11.3691 0.607285 11.6062 0.370231C11.8432 0.133176 12.1648 0 12.5 0H23.736Z" fill="white"/>
</svg>
